{"title":"The Land of Hope aka Kibô no Kuni (2012) by Sion Sono -JM","uid":8638393,"size":1952348988,"categoryP":"video","categoryS":"movies","magnet":"?xt=urn:btih:7b38eaed8e6f05a0e2232b6a1d4f3cc57598cfdf&amp;dn=The+Land+of+Hope+aka+Kib%26ocirc%3B+no+Kuni+%282012%29+by+Sion+Sono+-JM&amp;tr=udp%3A%2F%2Ftracker.openbittorrent.com%3A80&amp;tr=udp%3A%2F%2Fopen.demonii.com%3A1337&amp;tr=udp%3A%2F%2Ftracker.coppersurfer.tk%3A6969&amp;tr=udp%3A%2F%2Fexodus.desync.com%3A6969","seeders":11,"leechers":0,"uploader":"rpessoa","files":2,"time":1372813635,"description":"After a string of excellent movies (showcasing an awesome, almost frightening consistency of quality) - e.g. Suicide Club, Noriko's Dinner Table, Love Exposure, Guilty of Romance - Shion Sono provides his most mature film to date with &quot;The Land of Hope&quot;.\n\nThis is a movie about roots, growing up, self-discovery, death, life and the possibilities of learning more about yourself through hardship. This is a movie about commitment - in love as well as in life - and how to make good things happen in a bad world. This is a good movie about bad things happening to good and bad people alike.\n\nSubs: English\n &lt;a href=&quot;\nhttp://www.imdb.com/title/tt2283017/&quot; rel=&quot;nofollow&quot; target=&quot;_NEW&quot;&gt;\nhttp://www.imdb.com/title/tt2283017/&lt;/a&gt;\n\nGeneral\nUnique ID                                : 215954867804140290700589980405419216664 (0xA27765080BB4E155BC16E0B8DC240F18)\nComplete name                            : Land of Hope, The (2012, Sono Sion)-JM.mkv\nFormat                                   : Matroska\nFormat version                           : Version 2\nFile size                                : 1.82 GiB\nDuration                                 : 2h 13mn\nOverall bit rate                         : 1 943 Kbps\nEncoded date                             : UTC 2013-04-14 06:51:48\nWriting application                      : mkvmerge v5.8.0 ('No Sleep / Pillow') built on Sep  2 2012 15:37:04\nWriting library                          : libebml v1.2.3 + libmatroska v1.3.0\n\nVideo\nID                                       : 1\nFormat                                   : AVC\nFormat/Info                              : Advanced Video Codec\nFormat profile                           : &lt;a class=&quot;__cf_email__&quot; href=&quot;/cdn-cgi/l/email-protection&quot; data-cfemail=&quot;f1b9989699b1bdc5dfc1&quot;&gt;[email&amp;#160;protected]&lt;/a&gt;&lt;script cf-hash='f9e31' type=&quot;text/javascript&quot;&gt;\n/* &lt;![CDATA[ */!function(){try{var t=&quot;currentScript&quot;in document?document.currentScript:function(){for(var t=document.getElementsByTagName(&quot;script&quot;),e=t.length;e--;)if(t[e].getAttribute(&quot;cf-hash&quot;))return t[e]}();if(t&amp;&amp;t.previousSibling){var e,r,n,i,c=t.previousSibling,a=c.getAttribute(&quot;data-cfemail&quot;);if(a){for(e=&quot;&quot;,r=parseInt(a.substr(0,2),16),n=2;a.length-n;n+=2)i=parseInt(a.substr(n,2),16)^r,e+=String.fromCharCode(i);e=document.createTextNode(e),c.parentNode.replaceChild(e,c)}}}catch(u){}}();/* ]]&gt; */&lt;/script&gt;\nFormat settings, CABAC                   : Yes\nFormat settings, ReFrames                : 16 frames\nMuxing mode                              : Header stripping\nCodec ID                                 : V_MPEG4/ISO/AVC\nDuration                                 : 2h 13mn\nBit rate                                 : 1 494 Kbps\nWidth                                    : 716 pixels\nHeight                                   : 464 pixels\nDisplay aspect ratio                     : 16:9\nOriginal display aspect ratio            : 16:9\nFrame rate                               : 23.976 fps\nColor space                              : YUV\nChroma subsampling                       : 4:2:0\nBit depth                                : 8 bits\nScan type                                : Progressive\nBits/(Pixel*Frame)                       : 0.188\nStream size                              : 1.36 GiB (75%)\nWriting library                          : x264 core 130 r2273 b3065e6\nEncoding settings                        : cabac=1 / ref=16 / deblock=1:-2:-2 / analyse=0x3:0x133 / me=umh / subme=10 / psy=1 / psy_rd=1.00:0.25 / mixed_ref=1 / me_range=24 / chroma_me=1 / trellis=2 / 8x8dct=1 / cqm=0 / deadzone=6,6 / fast_pskip=1 / chroma_qp_offset=-4 / threads=6 / lookahead_threads=1 / sliced_threads=0 / nr=0 / decimate=0 / interlaced=0 / bluray_compat=0 / constrained_intra=0 / bframes=8 / b_pyramid=2 / b_adapt=2 / b_bias=0 / direct=3 / weightb=1 / open_gop=0 / weightp=2 / keyint=240 / keyint_min=23 / scenecut=40 / intra_refresh=0 / rc_lookahead=60 / rc=2pass / mbtree=1 / bitrate=1494 / ratetol=1.0 / qcomp=0.80 / qpmin=0 / qpmax=69 / qpstep=4 / cplxblur=20.0 / qblur=0.5 / ip_ratio=1.10 / aq=1:0.50\nLanguage                                 : Japanese\nDefault                                  : Yes\nForced                                   : No\n\nAudio\nID                                       : 2\nFormat                                   : AC-3\nFormat/Info                              : Audio Coding 3\nMode extension                           : CM (complete main)\nMuxing mode                              : Header stripping\nCodec ID                                 : A_AC3\nDuration                                 : 2h 13mn\nBit rate mode                            : Constant\nBit rate                                 : 448 Kbps\nChannel(s)                               : 6 channels\nChannel positions                        : Front: L C R, Side: L R, LFE\nSampling rate                            : 48.0 KHz\nBit depth                                : 16 bits\nCompression mode                         : Lossy\nStream size                              : 429 MiB (23%)\nLanguage                                 : Japanese\nDefault                                  : Yes\nForced                                   : No\n\nThanks to JeanMichel @ KG","torrent":{"xt":"urn:btih:7b38eaed8e6f05a0e2232b6a1d4f3cc57598cfdf","amp;dn":"The+Land+of+Hope+aka+Kib%26ocirc%3B+no+Kuni+%282012%29+by+Sion+Sono+-JM","amp;tr":["udp%3A%2F%2Ftracker.openbittorrent.com%3A80","udp%3A%2F%2Fopen.demonii.com%3A1337","udp%3A%2F%2Ftracker.coppersurfer.tk%3A6969","udp%3A%2F%2Fexodus.desync.com%3A6969"],"infoHash":"7b38eaed8e6f05a0e2232b6a1d4f3cc57598cfdf","infoHashBuffer":{"type":"Buffer","data":[123,56,234,237,142,111,5,160,226,35,43,106,29,79,60,197,117,152,207,223]},"announce":[],"urlList":[]}}